<svg xmlns="http://www.w3.org/2000/svg" xmlns:xlink="http://www.w3.org/1999/xlink" width="126" height="16" viewBox="0 0 126 16">
    <defs>
        <linearGradient id="c" x1="50%" x2="50%" y1="-5.536%" y2="141.67%">
            <stop offset="0%" stop-color="#FFFDFD"/>
            <stop offset="100%" stop-color="#C0F4FF"/>
        </linearGradient>
        <path id="b" d="M68.2 8.716c.45.183.854.369 1.213.557.36.189.667.415.924.679.258.263.456.581.595.952.14.372.21.821.21 1.349 0 .57-.1 1.085-.298 1.542-.199.458-.49.851-.876 1.18-.386.328-.86.58-1.423.759-.563.177-1.208.266-1.937.266a8.568 8.568 0 0 1-1.76-.162 10.98 10.98 0 0 1-1.648-.5c.043-.377.118-.778.225-1.203.107-.426.236-.86.386-1.3.986.43 1.843.645 2.572.645.546 0 .972-.083 1.278-.25.305-.167.458-.455.458-.864a.953.953 0 0 0-.096-.444.977.977 0 0 0-.258-.315 1.618 1.618 0 0 0-.361-.218 9.341 9.341 0 0 0-.41-.17l-.9-.339a5.78 5.78 0 0 1-1.053-.5 3.376 3.376 0 0 1-.812-.687 2.892 2.892 0 0 1-.523-.912 3.596 3.596 0 0 1-.185-1.212c0-.57.097-1.076.29-1.518.193-.441.463-.815.812-1.122a3.462 3.462 0 0 1 1.262-.695A5.47 5.47 0 0 1 67.54 4c.547 0 1.075.054 1.584.162.509.107 1.053.263 1.631.468a8.293 8.293 0 0 1-.659 2.31 15.144 15.144 0 0 0-.98-.372c-.375-.13-.842-.194-1.399-.194-.171 0-.335.016-.49.049a1.43 1.43 0 0 0-.418.153.812.812 0 0 0-.298.29.874.874 0 0 0-.112.461c0 .312.102.544.305.695.204.15.445.28.724.387l.771.307zm8.921 7.268c-.868 0-1.589-.119-2.162-.355-.573-.237-1.026-.58-1.358-1.026-.333-.447-.566-.988-.7-1.623s-.2-1.351-.2-2.148V4.226c.31-.043.578-.073.803-.089a8.276 8.276 0 0 1 1.246 0c.22.016.485.046.796.09v6.266c0 .538.021.996.064 1.372.043.377.12.684.233.921.113.237.27.406.474.509.204.102.472.153.804.153.332 0 .603-.051.812-.153.209-.103.37-.272.482-.509.113-.237.188-.544.225-.92.038-.377.056-.835.056-1.373V4.226c.322-.043.593-.073.812-.089.22-.016.42-.024.603-.024.193 0 .402.008.627.024.225.016.493.046.804.09v6.605c0 .797-.067 1.513-.201 2.148-.134.635-.367 1.176-.7 1.623-.332.447-.784.789-1.358 1.026-.573.236-1.294.355-2.162.355zM86.605 4c2.026 0 3.564.509 4.614 1.526 1.05 1.018 1.575 2.533 1.575 4.547 0 2.045-.535 3.545-1.607 4.498-1.072.953-2.658 1.429-4.758 1.429-.536 0-1.053-.024-1.552-.073a40.857 40.857 0 0 1-1.47-.17V4.228a26.084 26.084 0 0 1 1.414-.146c.29-.022.587-.04.892-.057.306-.016.603-.024.892-.024zm-.353 9.464c.075.011.16.016.257.016h.305c.418 0 .812-.05 1.182-.153.37-.102.688-.283.956-.541.268-.258.48-.608.635-1.05.156-.441.233-1.007.233-1.696 0-.678-.08-1.243-.24-1.695-.161-.453-.373-.81-.636-1.074a2.255 2.255 0 0 0-.924-.566 3.62 3.62 0 0 0-1.11-.17 9.411 9.411 0 0 0-.658.017v6.912zm7.86-3.424c0-.861.1-1.66.298-2.398.198-.738.504-1.376.916-1.914a4.3 4.3 0 0 1 1.576-1.268c.637-.307 1.395-.46 2.274-.46s1.634.153 2.267.46c.632.307 1.155.73 1.567 1.268.413.538.718 1.176.916 1.914.199.738.298 1.537.298 2.398 0 .862-.1 1.656-.298 2.383a5.347 5.347 0 0 1-.916 1.89 4.203 4.203 0 0 1-1.567 1.243c-.633.296-1.388.444-2.267.444s-1.637-.148-2.274-.444a4.187 4.187 0 0 1-1.576-1.244 5.347 5.347 0 0 1-.916-1.89 9.032 9.032 0 0 1-.297-2.382zm7.122 0c0-2.347-.68-3.52-2.042-3.52-1.393 0-2.09 1.173-2.09 3.52 0 1.174.17 2.049.507 2.625.337.576.86.864 1.567.864 1.372 0 2.058-1.163 2.058-3.489zm10.818-.242l3.006 5.96a5.36 5.36 0 0 1-.731.105 9.512 9.512 0 0 1-1.728 0 6.59 6.59 0 0 1-.74-.105l-2.941-5.815 2.716-5.717a8.807 8.807 0 0 1 1.962-.121c.15.005.297.016.442.032a47.8 47.8 0 0 1 .763.09l-2.749 5.571zm-6.205-5.572c.29-.043.552-.075.788-.097a6.98 6.98 0 0 1 .627-.032c.193 0 .41.01.651.032.241.022.501.054.78.097v11.532a8.706 8.706 0 0 1-1.415.145c-.396 0-.873-.048-1.43-.145V4.226zm14.532 11.758c-.868 0-1.588-.119-2.162-.355-.573-.237-1.026-.58-1.358-1.026-.332-.447-.565-.988-.7-1.623-.133-.635-.2-1.351-.2-2.148V4.226c.31-.043.578-.073.803-.089a8.276 8.276 0 0 1 1.246 0c.22.016.485.046.796.09v6.266c0 .538.021.996.064 1.372.043.377.12.684.233.921.113.237.27.406.475.509.203.102.471.153.803.153.333 0 .603-.051.812-.153.21-.103.37-.272.482-.509.113-.237.188-.544.225-.92.038-.377.057-.835.057-1.373V4.226c.321-.043.592-.073.811-.089.22-.016.421-.024.603-.024.193 0 .402.008.627.024.225.016.493.046.804.09v6.605c0 .797-.067 1.513-.2 2.148-.135.635-.368 1.176-.7 1.623-.332.447-.785.789-1.359 1.026-.573.236-1.294.355-2.162.355z"/>
        <filter id="a" width="111.4%" height="158.3%" x="-5.7%" y="-20.8%" filterUnits="objectBoundingBox">
            <feOffset dy="1" in="SourceAlpha" result="shadowOffsetOuter1"/>
            <feGaussianBlur in="shadowOffsetOuter1" result="shadowBlurOuter1" stdDeviation="1"/>
            <feColorMatrix in="shadowBlurOuter1" values="0 0 0 0 0 0 0 0 0 0 0 0 0 0 0 0 0 0 0.168241914 0"/>
        </filter>
    </defs>
    <g fill="none" fill-rule="evenodd">
        <g transform="translate(-1 -3)">
            <use fill="#000" filter="url(#a)" xlink:href="#b"/>
            <use fill="url(#c)" xlink:href="#b"/>
        </g>
        <text fill="#FFE900" font-family="Lato-Regular, Lato" font-size="15.2" transform="translate(-1 -3)">
            <tspan x="0" y="15">MASTER</tspan>
        </text>
    </g>
</svg>
